# xmcd
#
# Track frame offsets:
#	150
#	19795
#	35567
#	57242
#	78912
#	97137
#	116277
#	135975
#	153042
#	170052
#	184217
#	201092
#
# Disc length: 2922 seconds
#
# Revision: 18
# Processed by: cddbd v1.5.2PL0 Copyright (c) Steve Scherf et al.
# Submitted via: EasyCDDAExtractor 15.3.0.1
#
DISCID=960b680c
DTITLE=Toni Braxton - The Heat
DYEAR=2000
DGENRE=R&B
TTITLE0=He Wasn't Man Enough
TTITLE1=The Heat
TTITLE2=Spanish Guitar
TTITLE3=Just Be A Man About It
TTITLE4=Gimme Some
TTITLE5=I'm Still Breathing
TTITLE6=Fairy Tale
TTITLE7=The Art Of Love
TTITLE8=Speaking In Tongues
TTITLE9=Maybe
TTITLE10=You've Been Wrong
TTITLE11=Never Just For A Ring
EXTD=YEAR: 2000
EXTT0=
EXTT1=
EXTT2=
EXTT3=
EXTT4=
EXTT5=
EXTT6=
EXTT7=
EXTT8=
EXTT9=
EXTT10=
EXTT11=
PLAYORDER=
